PathFileType	4	(X/Y/Z)	C:/Users/beibeiliu/ov580/test_trc/User2\sequence.2_training_dense_right.trc
DataRate	CameraRate	NumFrames	NumMarkers	Units	OrigDataRate	OrigDataStartFrame	OrigNumFrames
120	120	16	19	mm	120	192	307
Frame#	Time	ThumbCMC			ThumbMCP			ThumbIP			ThumbTip			IndexMCP			IndexPIP			IndexTip			MiddleMCP			MiddlePIP			MiddleTip			RingMCP			RingPIP			RingTip			PinkyMCP			PinkyPIP			PinkyTip			BackHand1			BackHand2			BackHand3	
		X0	Y0	Z0	X1	Y1	Z1	X2	Y2	Z2	X3	Y3	Z3	X4	Y4	Z4	X5	Y5	Z5	X6	Y6	Z6	X7	Y7	Z7	X8	Y8	Z8	X9	Y9	Z9	X10	Y10	Z10	X11	Y11	Z11	X12	Y12	Z12	X13	Y13	Z13	X14	Y14	Z14	X15	Y15	Z15	X16	Y16	Z16	X17	Y17	Z17	X18	Y18	Z18	
191	1.59167	65.9376	1.9451	55.9935	59.116	-28.9603	41.4327	61.8406	-57.9653	11.0483	79.6461	-68.6546	-4.8164	75.6261	-3.49465	-25.4025	73.4666	-33.4409	-32.3857	72.3294	-52.1511	-4.16237	97.3232	-9.96864	-31.1971	95.6735	-44.5602	-30.2744	89.6449	-55.5649	9.05771	118.084	-16.4416	-22.5747	109.88	-48.4791	-20.5046	100.381	-59.0793	13.1831	137.366	-20.7571	-9.06546	125.714	-53.076	-1.74338	109.963	-49.8268	28.0842	122.558	29.1045	24.1469	124.729	37.8363	58.0697	91.561	34.5505	39.6485	
192	1.6	64.0313	1.59438	59.0954	54.6642	-33.1608	42.8625	62.7355	-56.8336	16.2134	78.5623	-71.2185	-0.119271	71.4575	-6.96205	-21.299	75.8039	-37.0942	-28.2278	73.7553	-54.0329	7.04445	97.8573	-14.1888	-27.6173	93.4631	-50.3901	-24.0171	88.1662	-59.4302	14.4074	115.137	-24.2987	-21.2607	113.319	-53.679	-15.8298	98.8296	-59.5879	20.5707	132.791	-25.0111	-6.21955	123.559	-56.6892	3.0149	114.631	-54.3258	32.931	123.94	24.0269	26.0162	124.068	36.1474	55.2964	89.4779	35.2346	44.9694	
193	1.60833	66.1765	3.8343	63.4788	54.3472	-29.8351	39.7781	56.1603	-54.2292	19.8932	73.6203	-67.8249	-2.56798	71.4555	-2.07715	-18.3391	70.2851	-34.7821	-27.7275	68.4588	-49.6067	7.56926	93.0278	-11.5601	-27.0452	89.7428	-44.9348	-27.9942	85.7439	-57.797	10.038	116.013	-17.8356	-19.0646	105.956	-50.9879	-16.1215	97.4149	-57.1231	20.0645	137.271	-23.1602	-4.39775	121.824	-56.2736	2.53764	112.741	-50.5515	33.5333	126.731	24.9369	23.7534	130.219	36.644	59.925	91.3331	35.6603	47.0249	
194	1.61667	62.7603	5.83852	62.3936	50.0971	-23.7171	38.283	50.4754	-45.9678	10.2599	67.224	-57.2493	-8.30002	71.757	5.18098	-22.3362	66.4595	-25.7639	-30.2011	69.8098	-41.714	0.539535	92.8012	-1.70529	-30.5452	88.8235	-37.3151	-32.5191	83.5552	-52.8944	3.50331	112.361	-11.4047	-23.316	105.633	-41.9187	-23.6992	97.9037	-52.3305	9.86317	128.338	-17.4138	-11.5425	120.247	-47.6877	-8.19473	106.846	-46.7709	20.923	124.143	25.956	25.806	129.562	35.991	60.2018	91.096	38.3436	46.3429	
195	1.625	65.2983	9.07492	58.797	51.7592	-16.6739	33.7329	49.1744	-36.2907	7.73106	65.6016	-44.9276	-14.1092	68.9608	16.5549	-22.493	61.9974	-12.6281	-34.3595	60.8571	-33.0671	-2.41728	86.9136	11.8292	-30.8941	81.7974	-23.934	-38.2109	83.0674	-44.8486	-6.22408	111.007	-1.83974	-27.5063	101.865	-29.9499	-31.4039	93.2096	-44.0366	2.39671	127.789	-8.28434	-16.5466	117.043	-39.0432	-16.9812	102.666	-41.3467	15.4789	122.15	30.095	30.2212	130.4	33.8466	61.4734	94.0425	39.4954	50.1751	
196	1.63333	65.041	10.3034	59.8572	51.6572	-13.0864	31.7999	49.5838	-30.9341	4.10228	61.294	-40.9877	-20.319	67.0182	25.3766	-23.5475	61.5116	-2.89837	-36.3724	59.8319	-27.0418	-9.47591	87.5708	18.3119	-32.3782	81.3538	-16.3548	-41.5595	79.0501	-38.6148	-6.18206	106.985	8.2792	-28.7292	100.745	-23.5339	-35.4861	93.4205	-39.6638	-3.45613	124.532	-0.534755	-16.2468	112.129	-33.7743	-19.3326	105.157	-42.8462	8.2643	127.425	34.8233	26.5226	132.513	34.1267	64.3875	94.9301	41.5868	49.8249	
197	1.64167	65.4998	11.048	59.8394	50.5492	-12.5767	28.5361	48.9272	-29.8082	-0.712101	63.9278	-39.8662	-19.3182	69.2768	27.9675	-22.187	63.9415	-2.35226	-38.3962	65.0362	-24.5794	-14.8564	88.4154	23.446	-29.5146	81.8451	-10.1176	-44.3798	80.4565	-35.7009	-7.26805	107.101	10.2242	-29.0024	101.183	-22.2751	-36.2016	90.2598	-37.6157	-8.11011	130.884	0.343595	-16.9737	112.629	-31.3697	-21.3605	103.292	-37.0203	6.31769	125.085	34.1817	26.4061	128.705	35.6088	65.1374	91.9104	45.2784	49.8541	
198	1.65	67.216	11.4168	57.457	54.1855	-13.0159	33.0538	52.3063	-31.8286	0.202259	67.4794	-42.8122	-24.7499	70.4851	28.2407	-22.397	68.4963	-3.3097	-40.4964	63.277	-28.6438	-13.9386	95.7855	18.8625	-32.8228	82.8804	-15.3634	-43.0733	80.4935	-36.8801	-8.83732	113.253	7.30794	-28.7093	102.339	-24.6266	-36.6165	92.0034	-38.9364	-9.55371	131.303	-1.98569	-18.2007	116.389	-34.1459	-20.3244	106.11	-41.4183	5.93577	126.813	33.8062	28.2464	128.774	38.5132	59.4221	96.1303	43.1775	48.6804	
199	1.65833	67.9603	10.356	51.6773	54.1645	-17.4996	26.3599	58.605	-36.2323	-2.0749	74.0795	-47.3928	-20.1327	77.4707	19.5497	-27.9562	69.5656	-6.72651	-42.6693	69.5596	-31.9975	-17.6501	98.2493	13.0149	-34.9808	89.2565	-19.9938	-42.9876	86.9148	-40.1736	-4.79619	117.15	1.32235	-29.1262	104.766	-28.8942	-35.0552	96.8865	-46.1405	-3.64987	136.755	-6.64173	-14.7859	119.019	-39.3021	-17.6781	106.58	-43.3919	10.2089	130.706	31.9464	23.777	131.143	36.7233	61.3778	92.7177	44.562	45.8964	
200	1.66667	68.7713	8.82251	52.781	57.3401	-20.3193	32.5763	61.2429	-43.7192	1.55484	77.6356	-56.4627	-15.9125	79.2174	13.6334	-27.8629	76.3898	-18.4865	-40.8078	72.7695	-39.135	-13.6318	103.74	2.84119	-34.8328	96.8939	-31.0025	-39.5027	90.2598	-47.1268	-1.85291	122.25	-8.20845	-28.1703	112.743	-40.283	-28.9349	100.616	-53.9778	3.63024	141.521	-15.199	-12.5474	121.16	-45.7021	-11.2551	107.874	-48.7917	17.0417	128.415	31.0673	24.1737	134.683	36.1387	61.5923	97.5657	41.5835	41.4223	
201	1.675	67.2601	9.1687	54.6236	56.9113	-24.3066	31.566	60.5976	-48.6612	10.3337	80.0004	-64.4197	-7.63959	82.7106	4.157	-27.4023	80.7962	-30.1133	-36.8182	73.5026	-46.6907	-7.66609	108.308	-7.61192	-31.5722	95.4294	-42.0619	-34.6291	88.1785	-53.3668	6.86536	126.7	-18.1224	-22.2285	117.634	-50.0802	-23.1665	98.092	-60.0638	7.76154	142.318	-24.1274	-6.11445	126.294	-54.9156	-4.51618	108.648	-53.5303	24.79	135.819	22.9902	23.844	133.161	35.5539	56.7253	96.5178	37.7152	41.3567	
202	1.68333	69.4933	8.57208	51.2288	56.9082	-24.4545	37.2821	59.3757	-54.3063	14.5019	81.205	-68.0891	2.49156	83.5544	-7.61378	-29.3004	79.4192	-40.1875	-30.1486	72.8265	-52.0522	2.42973	106.079	-16.1612	-27.395	96.8437	-54.2075	-25.453	84.3323	-58.2601	10.4647	122.966	-30.0751	-19.5835	112.191	-61.5361	-13.4219	96.5954	-66.6501	15.6358	142.024	-36.9897	-1.09919	120.576	-62.6045	4.32404	104.87	-60.7726	33.3686	137.397	18.9151	25.6753	138.491	29.234	55.6381	101.949	34.8504	37.129	
203	1.69167	67.215	11.0918	49.5832	52.0247	-22.444	39.7548	56.2526	-54.1713	21.4524	74.6678	-73.6269	10.0025	83.537	-17.09	-25.7208	72.8966	-47.0725	-24.1054	63.2748	-52.4225	13.0307	105.729	-30.4288	-25.8206	90.9412	-61.2343	-17.4555	80.9856	-60.1473	22.1632	122.772	-42.2139	-12.5644	103.888	-70.2906	-4.26787	89.2169	-69.8766	28.0059	134.671	-48.9273	3.63694	111.755	-69.5876	14.9722	96.905	-64.2856	39.2015	138.247	10.0881	24.8169	143.156	26.2516	58.1733	105.804	33.2187	32.2627	
204	1.7	70.8534	14.585	53.8235	53.7068	-18.9393	43.2344	48.1476	-51.554	27.7592	64.0348	-73.486	19.7591	84.2676	-23.261	-21.9312	67.1073	-50.721	-15.8115	60.4372	-51.5345	21.3278	103.371	-36.9056	-20.0572	86.1372	-66.4889	-9.65419	70.6908	-60.2683	27.2058	114.814	-50.4266	-9.36263	97.6593	-75.892	3.85845	78.0836	-69.1925	32.612	129.938	-53.9311	10.5581	106.518	-76.5	23.3345	88.3778	-65.9271	44.5607	137.739	2.10412	27.8098	143.134	20.6425	54.931	108.937	29.8241	33.4157	
205	1.70833	71.8713	17.0711	52.5684	47.0013	-11.6722	45.3517	41.2949	-44.6863	31.0551	57.2747	-68.1656	21.959	80.7597	-22.8769	-19.6996	61.7659	-48.7773	-13.1764	52.3604	-50.3961	16.5931	100.027	-35.4279	-16.8925	78.5211	-64.4655	-9.37552	64.7413	-57.2084	31.4746	111.266	-53.7403	-7.44176	89.2096	-72.9118	1.09818	70.5172	-66.9103	30.8455	123.563	-54.3038	13.0432	97.4748	-76.231	21.3884	77.9926	-64.8342	45.6188	140.173	-2.63384	26.8542	142.594	19.6653	55.861	113.28	28.4597	32.1633	
206	1.71667	73.0443	21.1204	49.8895	46.993	-8.09399	41.2281	35.2767	-39.9683	26.1751	47.2482	-63.9883	18.06	80.7018	-18.5523	-21.4194	59.0873	-41.495	-18.8987	45.2268	-45.5931	13.7086	97.3864	-32.4899	-19.5644	72.5329	-61.3695	-13.8251	55.4731	-53.436	23.8759	107.452	-49.5886	-7.80283	79.9356	-71.7824	0.565249	62.7071	-63.5976	31.7887	116.793	-57.0548	11.4721	85.6336	-73.0564	17.8779	69.6928	-63.4054	40.6814	135.206	-3.82301	26.3951	144.158	10.5052	54.6372	115.181	25.3409	32.5877	
